<mxfile host="Electron" agent="Mozilla/5.0 (Windows NT 10.0; Win64; x64) AppleWebKit/537.36 (KHTML, like Gecko) draw.io/26.0.9 Chrome/128.0.6613.186 Electron/32.2.5 Safari/537.36" version="26.0.9">
  <diagram id="C5RBs43oDa-KdzZeNtuy" name="Page-1">
    <mxGraphModel dx="1562" dy="892" grid="1" gridSize="16" guides="1" tooltips="1" connect="1" arrows="1" fold="1" page="1" pageScale="1" pageWidth="3300" pageHeight="4681" math="0" shadow="0">
      <root>
        <mxCell id="WIyWlLk6GJQsqaUBKTNV-0" />
        <mxCell id="WIyWlLk6GJQsqaUBKTNV-1" parent="WIyWlLk6GJQsqaUBKTNV-0" />
        <mxCell id="wuzOycE2TQL7Sc82JYtj-49" style="edgeStyle=orthogonalEdgeStyle;rounded=0;orthogonalLoop=1;jettySize=auto;html=1;entryX=0.5;entryY=0;entryDx=0;entryDy=0;endArrow=diamondThin;endFill=0;strokeWidth=1;endSize=16;" parent="WIyWlLk6GJQsqaUBKTNV-1" target="utn5g6Z5mzQiRMReHxxm-24" edge="1">
          <mxGeometry relative="1" as="geometry">
            <mxPoint x="192" y="448" as="sourcePoint" />
            <mxPoint x="917" y="169" as="targetPoint" />
            <Array as="points">
              <mxPoint x="192" y="149" />
              <mxPoint x="917" y="149" />
            </Array>
          </mxGeometry>
        </mxCell>
        <mxCell id="zkfFHV4jXpPFQw0GAbJ--0" value="«abstract»&#xa;Vehículos" style="swimlane;fontStyle=2;align=center;verticalAlign=top;childLayout=stackLayout;horizontal=1;startSize=40;horizontalStack=0;resizeParent=1;resizeLast=0;collapsible=1;marginBottom=0;rounded=0;shadow=0;strokeWidth=1;" parent="WIyWlLk6GJQsqaUBKTNV-1" vertex="1">
          <mxGeometry x="180" y="450" width="160" height="190" as="geometry">
            <mxRectangle x="220" y="80" width="160" height="26" as="alternateBounds" />
          </mxGeometry>
        </mxCell>
        <mxCell id="zkfFHV4jXpPFQw0GAbJ--1" value="-marca : String&#xa;" style="text;align=left;verticalAlign=top;spacingLeft=4;spacingRight=4;overflow=hidden;rotatable=0;points=[[0,0.5],[1,0.5]];portConstraint=eastwest;" parent="zkfFHV4jXpPFQw0GAbJ--0" vertex="1">
          <mxGeometry y="40" width="160" height="26" as="geometry" />
        </mxCell>
        <mxCell id="zkfFHV4jXpPFQw0GAbJ--2" value="-modelo : String" style="text;align=left;verticalAlign=top;spacingLeft=4;spacingRight=4;overflow=hidden;rotatable=0;points=[[0,0.5],[1,0.5]];portConstraint=eastwest;rounded=0;shadow=0;html=0;" parent="zkfFHV4jXpPFQw0GAbJ--0" vertex="1">
          <mxGeometry y="66" width="160" height="26" as="geometry" />
        </mxCell>
        <mxCell id="zkfFHV4jXpPFQw0GAbJ--3" value="-precioBase : Int" style="text;align=left;verticalAlign=top;spacingLeft=4;spacingRight=4;overflow=hidden;rotatable=0;points=[[0,0.5],[1,0.5]];portConstraint=eastwest;rounded=0;shadow=0;html=0;" parent="zkfFHV4jXpPFQw0GAbJ--0" vertex="1">
          <mxGeometry y="92" width="160" height="26" as="geometry" />
        </mxCell>
        <mxCell id="JOzwWD3uNPVDuFDDC3zD-11" value="-fechaFabricacion : Date" style="text;align=left;verticalAlign=top;spacingLeft=4;spacingRight=4;overflow=hidden;rotatable=0;points=[[0,0.5],[1,0.5]];portConstraint=eastwest;rounded=0;shadow=0;html=0;" parent="zkfFHV4jXpPFQw0GAbJ--0" vertex="1">
          <mxGeometry y="118" width="160" height="26" as="geometry" />
        </mxCell>
        <mxCell id="zkfFHV4jXpPFQw0GAbJ--4" value="" style="line;html=1;strokeWidth=1;align=left;verticalAlign=middle;spacingTop=-1;spacingLeft=3;spacingRight=3;rotatable=0;labelPosition=right;points=[];portConstraint=eastwest;" parent="zkfFHV4jXpPFQw0GAbJ--0" vertex="1">
          <mxGeometry y="144" width="160" height="10" as="geometry" />
        </mxCell>
        <mxCell id="JOzwWD3uNPVDuFDDC3zD-29" value="+ calcularPrecioFinal(): double" style="text;align=left;verticalAlign=top;spacingLeft=4;spacingRight=4;overflow=hidden;rotatable=0;points=[[0,0.5],[1,0.5]];portConstraint=eastwest;rounded=0;shadow=0;html=0;" parent="zkfFHV4jXpPFQw0GAbJ--0" vertex="1">
          <mxGeometry y="154" width="160" height="26" as="geometry" />
        </mxCell>
        <mxCell id="zkfFHV4jXpPFQw0GAbJ--6" value="Coches" style="swimlane;fontStyle=0;align=center;verticalAlign=top;childLayout=stackLayout;horizontal=1;startSize=26;horizontalStack=0;resizeParent=1;resizeLast=0;collapsible=1;marginBottom=0;rounded=0;shadow=0;strokeWidth=1;" parent="WIyWlLk6GJQsqaUBKTNV-1" vertex="1">
          <mxGeometry x="80" y="750" width="160" height="110" as="geometry">
            <mxRectangle x="130" y="380" width="160" height="26" as="alternateBounds" />
          </mxGeometry>
        </mxCell>
        <mxCell id="zkfFHV4jXpPFQw0GAbJ--7" value="-numPuertas : Int" style="text;align=left;verticalAlign=top;spacingLeft=4;spacingRight=4;overflow=hidden;rotatable=0;points=[[0,0.5],[1,0.5]];portConstraint=eastwest;" parent="zkfFHV4jXpPFQw0GAbJ--6" vertex="1">
          <mxGeometry y="26" width="160" height="26" as="geometry" />
        </mxCell>
        <mxCell id="zkfFHV4jXpPFQw0GAbJ--8" value="-tipoCombustible : String" style="text;align=left;verticalAlign=top;spacingLeft=4;spacingRight=4;overflow=hidden;rotatable=0;points=[[0,0.5],[1,0.5]];portConstraint=eastwest;rounded=0;shadow=0;html=0;" parent="zkfFHV4jXpPFQw0GAbJ--6" vertex="1">
          <mxGeometry y="52" width="160" height="26" as="geometry" />
        </mxCell>
        <mxCell id="zkfFHV4jXpPFQw0GAbJ--9" value="" style="line;html=1;strokeWidth=1;align=left;verticalAlign=middle;spacingTop=-1;spacingLeft=3;spacingRight=3;rotatable=0;labelPosition=right;points=[];portConstraint=eastwest;" parent="zkfFHV4jXpPFQw0GAbJ--6" vertex="1">
          <mxGeometry y="78" width="160" height="8" as="geometry" />
        </mxCell>
        <mxCell id="zkfFHV4jXpPFQw0GAbJ--13" value="Motocicletas" style="swimlane;fontStyle=0;align=center;verticalAlign=top;childLayout=stackLayout;horizontal=1;startSize=26;horizontalStack=0;resizeParent=1;resizeLast=0;collapsible=1;marginBottom=0;rounded=0;shadow=0;strokeWidth=1;" parent="WIyWlLk6GJQsqaUBKTNV-1" vertex="1">
          <mxGeometry x="294" y="750" width="160" height="130" as="geometry">
            <mxRectangle x="340" y="380" width="170" height="26" as="alternateBounds" />
          </mxGeometry>
        </mxCell>
        <mxCell id="zkfFHV4jXpPFQw0GAbJ--14" value="-cilindrada : Int" style="text;align=left;verticalAlign=top;spacingLeft=4;spacingRight=4;overflow=hidden;rotatable=0;points=[[0,0.5],[1,0.5]];portConstraint=eastwest;" parent="zkfFHV4jXpPFQw0GAbJ--13" vertex="1">
          <mxGeometry y="26" width="160" height="26" as="geometry" />
        </mxCell>
        <mxCell id="JOzwWD3uNPVDuFDDC3zD-13" value="-tipoTransmision : String" style="text;align=left;verticalAlign=top;spacingLeft=4;spacingRight=4;overflow=hidden;rotatable=0;points=[[0,0.5],[1,0.5]];portConstraint=eastwest;" parent="zkfFHV4jXpPFQw0GAbJ--13" vertex="1">
          <mxGeometry y="52" width="160" height="26" as="geometry" />
        </mxCell>
        <mxCell id="zkfFHV4jXpPFQw0GAbJ--15" value="" style="line;html=1;strokeWidth=1;align=left;verticalAlign=middle;spacingTop=-1;spacingLeft=3;spacingRight=3;rotatable=0;labelPosition=right;points=[];portConstraint=eastwest;" parent="zkfFHV4jXpPFQw0GAbJ--13" vertex="1">
          <mxGeometry y="78" width="160" height="48" as="geometry" />
        </mxCell>
        <mxCell id="zkfFHV4jXpPFQw0GAbJ--17" value="Camiones" style="swimlane;fontStyle=0;align=center;verticalAlign=top;childLayout=stackLayout;horizontal=1;startSize=26;horizontalStack=0;resizeParent=1;resizeLast=0;collapsible=1;marginBottom=0;rounded=0;shadow=0;strokeWidth=1;" parent="WIyWlLk6GJQsqaUBKTNV-1" vertex="1">
          <mxGeometry x="490" y="750" width="160" height="120" as="geometry">
            <mxRectangle x="550" y="140" width="160" height="26" as="alternateBounds" />
          </mxGeometry>
        </mxCell>
        <mxCell id="zkfFHV4jXpPFQw0GAbJ--18" value="-capacidadCarga : Int" style="text;align=left;verticalAlign=top;spacingLeft=4;spacingRight=4;overflow=hidden;rotatable=0;points=[[0,0.5],[1,0.5]];portConstraint=eastwest;" parent="zkfFHV4jXpPFQw0GAbJ--17" vertex="1">
          <mxGeometry y="26" width="160" height="26" as="geometry" />
        </mxCell>
        <mxCell id="zkfFHV4jXpPFQw0GAbJ--19" value="-numEjes : Int" style="text;align=left;verticalAlign=top;spacingLeft=4;spacingRight=4;overflow=hidden;rotatable=0;points=[[0,0.5],[1,0.5]];portConstraint=eastwest;rounded=0;shadow=0;html=0;" parent="zkfFHV4jXpPFQw0GAbJ--17" vertex="1">
          <mxGeometry y="52" width="160" height="26" as="geometry" />
        </mxCell>
        <mxCell id="zkfFHV4jXpPFQw0GAbJ--23" value="" style="line;html=1;strokeWidth=1;align=left;verticalAlign=middle;spacingTop=-1;spacingLeft=3;spacingRight=3;rotatable=0;labelPosition=right;points=[];portConstraint=eastwest;" parent="zkfFHV4jXpPFQw0GAbJ--17" vertex="1">
          <mxGeometry y="78" width="160" height="8" as="geometry" />
        </mxCell>
        <mxCell id="JOzwWD3uNPVDuFDDC3zD-16" value="Empresa" style="swimlane;fontStyle=0;childLayout=stackLayout;horizontal=1;startSize=26;fillColor=none;horizontalStack=0;resizeParent=1;resizeParentMax=0;resizeLast=0;collapsible=1;marginBottom=0;whiteSpace=wrap;html=1;" parent="WIyWlLk6GJQsqaUBKTNV-1" vertex="1">
          <mxGeometry x="1324" y="515" width="180" height="98" as="geometry" />
        </mxCell>
        <mxCell id="JOzwWD3uNPVDuFDDC3zD-17" value="-nombreComercial : String&lt;div&gt;&lt;br&gt;&lt;/div&gt;" style="text;strokeColor=none;fillColor=none;align=left;verticalAlign=top;spacingLeft=4;spacingRight=4;overflow=hidden;rotatable=0;points=[[0,0.5],[1,0.5]];portConstraint=eastwest;whiteSpace=wrap;html=1;" parent="JOzwWD3uNPVDuFDDC3zD-16" vertex="1">
          <mxGeometry y="26" width="180" height="26" as="geometry" />
        </mxCell>
        <mxCell id="JOzwWD3uNPVDuFDDC3zD-18" value="-responsableCompras : String" style="text;strokeColor=none;fillColor=none;align=left;verticalAlign=top;spacingLeft=4;spacingRight=4;overflow=hidden;rotatable=0;points=[[0,0.5],[1,0.5]];portConstraint=eastwest;whiteSpace=wrap;html=1;" parent="JOzwWD3uNPVDuFDDC3zD-16" vertex="1">
          <mxGeometry y="52" width="180" height="26" as="geometry" />
        </mxCell>
        <mxCell id="JOzwWD3uNPVDuFDDC3zD-27" value="" style="line;strokeWidth=1;fillColor=none;align=left;verticalAlign=middle;spacingTop=-1;spacingLeft=3;spacingRight=3;rotatable=0;labelPosition=right;points=[];portConstraint=eastwest;strokeColor=inherit;" parent="JOzwWD3uNPVDuFDDC3zD-16" vertex="1">
          <mxGeometry y="78" width="180" height="20" as="geometry" />
        </mxCell>
        <mxCell id="wuzOycE2TQL7Sc82JYtj-50" style="edgeStyle=orthogonalEdgeStyle;rounded=0;orthogonalLoop=1;jettySize=auto;html=1;endArrow=diamondThin;endFill=0;endSize=16;" parent="WIyWlLk6GJQsqaUBKTNV-1" source="JOzwWD3uNPVDuFDDC3zD-20" target="98DgAm7RsC2fbT5MqjIy-2" edge="1">
          <mxGeometry relative="1" as="geometry" />
        </mxCell>
        <mxCell id="JOzwWD3uNPVDuFDDC3zD-20" value="&lt;span style=&quot;font-style: italic; text-wrap: nowrap;&quot;&gt;«abstract»&lt;/span&gt;&lt;br style=&quot;padding: 0px; margin: 0px; font-style: italic; text-wrap: nowrap;&quot;&gt;&lt;div&gt;Clientes&lt;/div&gt;" style="swimlane;fontStyle=0;childLayout=stackLayout;horizontal=1;startSize=50;fillColor=none;horizontalStack=0;resizeParent=1;resizeParentMax=0;resizeLast=0;collapsible=1;marginBottom=0;whiteSpace=wrap;html=1;" parent="WIyWlLk6GJQsqaUBKTNV-1" vertex="1">
          <mxGeometry x="1024" y="515" width="170" height="248" as="geometry" />
        </mxCell>
        <mxCell id="JOzwWD3uNPVDuFDDC3zD-22" value="-nombre : String" style="text;strokeColor=none;fillColor=none;align=left;verticalAlign=top;spacingLeft=4;spacingRight=4;overflow=hidden;rotatable=0;points=[[0,0.5],[1,0.5]];portConstraint=eastwest;whiteSpace=wrap;html=1;" parent="JOzwWD3uNPVDuFDDC3zD-20" vertex="1">
          <mxGeometry y="50" width="170" height="26" as="geometry" />
        </mxCell>
        <mxCell id="JOzwWD3uNPVDuFDDC3zD-24" value="- dniCif : String&lt;div&gt;&lt;br&gt;&lt;/div&gt;" style="text;strokeColor=none;fillColor=none;align=left;verticalAlign=top;spacingLeft=4;spacingRight=4;overflow=hidden;rotatable=0;points=[[0,0.5],[1,0.5]];portConstraint=eastwest;whiteSpace=wrap;html=1;" parent="JOzwWD3uNPVDuFDDC3zD-20" vertex="1">
          <mxGeometry y="76" width="170" height="26" as="geometry" />
        </mxCell>
        <mxCell id="UEGiH2OSKMGne1ha3cfj-8" value="&lt;div&gt;-datosContacto : String&lt;/div&gt;" style="text;strokeColor=none;fillColor=none;align=left;verticalAlign=top;spacingLeft=4;spacingRight=4;overflow=hidden;rotatable=0;points=[[0,0.5],[1,0.5]];portConstraint=eastwest;whiteSpace=wrap;html=1;" parent="JOzwWD3uNPVDuFDDC3zD-20" vertex="1">
          <mxGeometry y="102" width="170" height="30" as="geometry" />
        </mxCell>
        <mxCell id="JOzwWD3uNPVDuFDDC3zD-23" value="&lt;div&gt;-esFrecuente : bolean&lt;/div&gt;" style="text;strokeColor=none;fillColor=none;align=left;verticalAlign=top;spacingLeft=4;spacingRight=4;overflow=hidden;rotatable=0;points=[[0,0.5],[1,0.5]];portConstraint=eastwest;whiteSpace=wrap;html=1;" parent="JOzwWD3uNPVDuFDDC3zD-20" vertex="1">
          <mxGeometry y="132" width="170" height="30" as="geometry" />
        </mxCell>
        <mxCell id="JOzwWD3uNPVDuFDDC3zD-25" value="" style="line;strokeWidth=1;fillColor=none;align=left;verticalAlign=middle;spacingTop=-1;spacingLeft=3;spacingRight=3;rotatable=0;labelPosition=right;points=[];portConstraint=eastwest;strokeColor=inherit;" parent="JOzwWD3uNPVDuFDDC3zD-20" vertex="1">
          <mxGeometry y="162" width="170" height="16" as="geometry" />
        </mxCell>
        <mxCell id="JOzwWD3uNPVDuFDDC3zD-26" value="&lt;div&gt;+ obtenerDatos()&amp;nbsp; : String&lt;/div&gt;" style="text;strokeColor=none;fillColor=none;align=left;verticalAlign=top;spacingLeft=4;spacingRight=4;overflow=hidden;rotatable=0;points=[[0,0.5],[1,0.5]];portConstraint=eastwest;whiteSpace=wrap;html=1;" parent="JOzwWD3uNPVDuFDDC3zD-20" vertex="1">
          <mxGeometry y="178" width="170" height="70" as="geometry" />
        </mxCell>
        <mxCell id="utn5g6Z5mzQiRMReHxxm-11" value="Particular" style="swimlane;fontStyle=0;childLayout=stackLayout;horizontal=1;startSize=26;fillColor=none;horizontalStack=0;resizeParent=1;resizeParentMax=0;resizeLast=0;collapsible=1;marginBottom=0;whiteSpace=wrap;html=1;" parent="WIyWlLk6GJQsqaUBKTNV-1" vertex="1">
          <mxGeometry x="1324" y="625" width="180" height="72" as="geometry" />
        </mxCell>
        <mxCell id="utn5g6Z5mzQiRMReHxxm-19" style="edgeStyle=orthogonalEdgeStyle;rounded=0;orthogonalLoop=1;jettySize=auto;html=1;endArrow=none;startFill=0;" parent="utn5g6Z5mzQiRMReHxxm-11" source="utn5g6Z5mzQiRMReHxxm-12" edge="1">
          <mxGeometry relative="1" as="geometry">
            <mxPoint x="-70" y="-10" as="targetPoint" />
            <Array as="points">
              <mxPoint x="-70" y="39" />
              <mxPoint x="-70" y="-10" />
            </Array>
          </mxGeometry>
        </mxCell>
        <mxCell id="utn5g6Z5mzQiRMReHxxm-12" value="&lt;div&gt;&lt;br&gt;&lt;/div&gt;" style="text;strokeColor=none;fillColor=none;align=left;verticalAlign=top;spacingLeft=4;spacingRight=4;overflow=hidden;rotatable=0;points=[[0,0.5],[1,0.5]];portConstraint=eastwest;whiteSpace=wrap;html=1;" parent="utn5g6Z5mzQiRMReHxxm-11" vertex="1">
          <mxGeometry y="26" width="180" height="26" as="geometry" />
        </mxCell>
        <mxCell id="utn5g6Z5mzQiRMReHxxm-14" value="" style="line;strokeWidth=1;fillColor=none;align=left;verticalAlign=middle;spacingTop=-1;spacingLeft=3;spacingRight=3;rotatable=0;labelPosition=right;points=[];portConstraint=eastwest;strokeColor=inherit;" parent="utn5g6Z5mzQiRMReHxxm-11" vertex="1">
          <mxGeometry y="52" width="180" height="20" as="geometry" />
        </mxCell>
        <mxCell id="utn5g6Z5mzQiRMReHxxm-18" style="edgeStyle=orthogonalEdgeStyle;rounded=0;orthogonalLoop=1;jettySize=auto;html=1;entryX=0.988;entryY=0.067;entryDx=0;entryDy=0;entryPerimeter=0;endArrow=block;endFill=0;jumpSize=8;strokeWidth=1;endSize=10;" parent="WIyWlLk6GJQsqaUBKTNV-1" source="JOzwWD3uNPVDuFDDC3zD-18" target="UEGiH2OSKMGne1ha3cfj-8" edge="1">
          <mxGeometry relative="1" as="geometry">
            <Array as="points">
              <mxPoint x="1254" y="580" />
              <mxPoint x="1254" y="619" />
            </Array>
          </mxGeometry>
        </mxCell>
        <mxCell id="utn5g6Z5mzQiRMReHxxm-20" value="&lt;div&gt;&lt;span style=&quot;font-style: italic; font-weight: 400; text-wrap: nowrap;&quot;&gt;«interface»&lt;/span&gt;&lt;/div&gt;&lt;div&gt;&lt;span style=&quot;font-weight: normal;&quot;&gt;DescuentoAplicable&lt;/span&gt;&lt;/div&gt;" style="swimlane;fontStyle=1;align=center;verticalAlign=top;childLayout=stackLayout;horizontal=1;startSize=40;horizontalStack=0;resizeParent=1;resizeParentMax=0;resizeLast=0;collapsible=1;marginBottom=0;whiteSpace=wrap;html=1;" parent="WIyWlLk6GJQsqaUBKTNV-1" vertex="1">
          <mxGeometry x="736" y="623" width="248" height="110" as="geometry" />
        </mxCell>
        <mxCell id="98DgAm7RsC2fbT5MqjIy-6" value="" style="line;html=1;strokeWidth=1;align=left;verticalAlign=middle;spacingTop=-1;spacingLeft=3;spacingRight=3;rotatable=0;labelPosition=right;points=[];portConstraint=eastwest;" parent="utn5g6Z5mzQiRMReHxxm-20" vertex="1">
          <mxGeometry y="40" width="248" height="30" as="geometry" />
        </mxCell>
        <mxCell id="utn5g6Z5mzQiRMReHxxm-23" value="+ calcularDescuento(precioTotal): double" style="text;strokeColor=none;fillColor=none;align=left;verticalAlign=top;spacingLeft=4;spacingRight=4;overflow=hidden;rotatable=0;points=[[0,0.5],[1,0.5]];portConstraint=eastwest;whiteSpace=wrap;html=1;" parent="utn5g6Z5mzQiRMReHxxm-20" vertex="1">
          <mxGeometry y="70" width="248" height="40" as="geometry" />
        </mxCell>
        <mxCell id="utn5g6Z5mzQiRMReHxxm-24" value="Venta" style="swimlane;fontStyle=0;childLayout=stackLayout;horizontal=1;startSize=26;fillColor=none;horizontalStack=0;resizeParent=1;resizeParentMax=0;resizeLast=0;collapsible=1;marginBottom=0;whiteSpace=wrap;html=1;" parent="WIyWlLk6GJQsqaUBKTNV-1" vertex="1">
          <mxGeometry x="832" y="203" width="170" height="132" as="geometry" />
        </mxCell>
        <mxCell id="98DgAm7RsC2fbT5MqjIy-2" value="- fecha : Date" style="text;strokeColor=none;fillColor=none;align=left;verticalAlign=top;spacingLeft=4;spacingRight=4;overflow=hidden;rotatable=0;points=[[0,0.5],[1,0.5]];portConstraint=eastwest;whiteSpace=wrap;html=1;" parent="utn5g6Z5mzQiRMReHxxm-24" vertex="1">
          <mxGeometry y="26" width="170" height="26" as="geometry" />
        </mxCell>
        <mxCell id="98DgAm7RsC2fbT5MqjIy-4" value="" style="line;html=1;strokeWidth=1;align=left;verticalAlign=middle;spacingTop=-1;spacingLeft=3;spacingRight=3;rotatable=0;labelPosition=right;points=[];portConstraint=eastwest;" parent="utn5g6Z5mzQiRMReHxxm-24" vertex="1">
          <mxGeometry y="52" width="170" height="30" as="geometry" />
        </mxCell>
        <mxCell id="98DgAm7RsC2fbT5MqjIy-7" value="+ generarFactura(): String" style="text;strokeColor=none;fillColor=none;align=left;verticalAlign=top;spacingLeft=4;spacingRight=4;overflow=hidden;rotatable=0;points=[[0,0.5],[1,0.5]];portConstraint=eastwest;whiteSpace=wrap;html=1;" parent="utn5g6Z5mzQiRMReHxxm-24" vertex="1">
          <mxGeometry y="82" width="170" height="26" as="geometry" />
        </mxCell>
        <mxCell id="98DgAm7RsC2fbT5MqjIy-5" value="+ calcularTotal() : double&lt;div&gt;&lt;br&gt;&lt;/div&gt;" style="text;strokeColor=none;fillColor=none;align=left;verticalAlign=top;spacingLeft=4;spacingRight=4;overflow=hidden;rotatable=0;points=[[0,0.5],[1,0.5]];portConstraint=eastwest;whiteSpace=wrap;html=1;" parent="utn5g6Z5mzQiRMReHxxm-24" vertex="1">
          <mxGeometry y="108" width="170" height="24" as="geometry" />
        </mxCell>
        <mxCell id="98DgAm7RsC2fbT5MqjIy-1" value="" style="endArrow=none;html=1;rounded=0;entryX=0.443;entryY=-0.016;entryDx=0;entryDy=0;entryPerimeter=0;" parent="WIyWlLk6GJQsqaUBKTNV-1" target="zkfFHV4jXpPFQw0GAbJ--17" edge="1">
          <mxGeometry width="50" height="50" relative="1" as="geometry">
            <mxPoint x="272" y="704" as="sourcePoint" />
            <mxPoint x="510" y="630" as="targetPoint" />
            <Array as="points">
              <mxPoint x="336" y="704" />
              <mxPoint x="561" y="704" />
            </Array>
          </mxGeometry>
        </mxCell>
        <mxCell id="98DgAm7RsC2fbT5MqjIy-8" value="Consecionario" style="swimlane;fontStyle=0;childLayout=stackLayout;horizontal=1;startSize=26;fillColor=none;horizontalStack=0;resizeParent=1;resizeParentMax=0;resizeLast=0;collapsible=1;marginBottom=0;whiteSpace=wrap;html=1;" parent="WIyWlLk6GJQsqaUBKTNV-1" vertex="1">
          <mxGeometry x="432" y="256" width="251" height="184" as="geometry" />
        </mxCell>
        <mxCell id="98DgAm7RsC2fbT5MqjIy-12" value="- totalVentas: static int" style="text;strokeColor=none;fillColor=none;align=left;verticalAlign=top;spacingLeft=4;spacingRight=4;overflow=hidden;rotatable=0;points=[[0,0.5],[1,0.5]];portConstraint=eastwest;whiteSpace=wrap;html=1;" parent="98DgAm7RsC2fbT5MqjIy-8" vertex="1">
          <mxGeometry y="26" width="251" height="26" as="geometry" />
        </mxCell>
        <mxCell id="98DgAm7RsC2fbT5MqjIy-13" value="" style="line;html=1;strokeWidth=1;align=left;verticalAlign=middle;spacingTop=-1;spacingLeft=3;spacingRight=3;rotatable=0;labelPosition=right;points=[];portConstraint=eastwest;" parent="98DgAm7RsC2fbT5MqjIy-8" vertex="1">
          <mxGeometry y="52" width="251" height="30" as="geometry" />
        </mxCell>
        <mxCell id="98DgAm7RsC2fbT5MqjIy-14" value="+ agregarVehiculo(vehiculo : Vehiculo)" style="text;strokeColor=none;fillColor=none;align=left;verticalAlign=top;spacingLeft=4;spacingRight=4;overflow=hidden;rotatable=0;points=[[0,0.5],[1,0.5]];portConstraint=eastwest;whiteSpace=wrap;html=1;" parent="98DgAm7RsC2fbT5MqjIy-8" vertex="1">
          <mxGeometry y="82" width="251" height="26" as="geometry" />
        </mxCell>
        <mxCell id="98DgAm7RsC2fbT5MqjIy-16" value="+generarReporteMensual(): double" style="text;strokeColor=none;fillColor=none;align=left;verticalAlign=top;spacingLeft=4;spacingRight=4;overflow=hidden;rotatable=0;points=[[0,0.5],[1,0.5]];portConstraint=eastwest;whiteSpace=wrap;html=1;" parent="98DgAm7RsC2fbT5MqjIy-8" vertex="1">
          <mxGeometry y="108" width="251" height="26" as="geometry" />
        </mxCell>
        <mxCell id="98DgAm7RsC2fbT5MqjIy-17" value="+ obtenerTotalVentas(): static int" style="text;strokeColor=none;fillColor=none;align=left;verticalAlign=top;spacingLeft=4;spacingRight=4;overflow=hidden;rotatable=0;points=[[0,0.5],[1,0.5]];portConstraint=eastwest;whiteSpace=wrap;html=1;" parent="98DgAm7RsC2fbT5MqjIy-8" vertex="1">
          <mxGeometry y="134" width="251" height="26" as="geometry" />
        </mxCell>
        <mxCell id="98DgAm7RsC2fbT5MqjIy-15" value="+ registrarVenta(venta : Venta)" style="text;strokeColor=none;fillColor=none;align=left;verticalAlign=top;spacingLeft=4;spacingRight=4;overflow=hidden;rotatable=0;points=[[0,0.5],[1,0.5]];portConstraint=eastwest;whiteSpace=wrap;html=1;" parent="98DgAm7RsC2fbT5MqjIy-8" vertex="1">
          <mxGeometry y="160" width="251" height="24" as="geometry" />
        </mxCell>
        <mxCell id="98DgAm7RsC2fbT5MqjIy-20" value="" style="shape=umlActor;verticalLabelPosition=bottom;verticalAlign=top;html=1;outlineConnect=0;" parent="WIyWlLk6GJQsqaUBKTNV-1" vertex="1">
          <mxGeometry x="1054" y="784" width="110" height="170" as="geometry" />
        </mxCell>
        <mxCell id="98DgAm7RsC2fbT5MqjIy-34" value="" style="endArrow=none;dashed=1;html=1;rounded=0;startArrow=blockThin;startFill=1;entryX=0.397;entryY=0.016;entryDx=0;entryDy=0;entryPerimeter=0;" parent="WIyWlLk6GJQsqaUBKTNV-1" source="JOzwWD3uNPVDuFDDC3zD-24" target="utn5g6Z5mzQiRMReHxxm-20" edge="1">
          <mxGeometry width="50" height="50" relative="1" as="geometry">
            <mxPoint x="752" y="543" as="sourcePoint" />
            <mxPoint x="720" y="541" as="targetPoint" />
            <Array as="points">
              <mxPoint x="1024" y="610" />
              <mxPoint x="864" y="610" />
            </Array>
          </mxGeometry>
        </mxCell>
        <mxCell id="wuzOycE2TQL7Sc82JYtj-1" value="" style="endArrow=none;html=1;rounded=0;exitX=0.458;exitY=0.004;exitDx=0;exitDy=0;exitPerimeter=0;" parent="WIyWlLk6GJQsqaUBKTNV-1" source="zkfFHV4jXpPFQw0GAbJ--13" edge="1">
          <mxGeometry width="50" height="50" relative="1" as="geometry">
            <mxPoint x="364" y="746" as="sourcePoint" />
            <mxPoint x="368" y="704" as="targetPoint" />
            <Array as="points">
              <mxPoint x="368" y="720" />
            </Array>
          </mxGeometry>
        </mxCell>
        <mxCell id="wuzOycE2TQL7Sc82JYtj-2" style="edgeStyle=orthogonalEdgeStyle;rounded=0;orthogonalLoop=1;jettySize=auto;html=1;endArrow=block;endFill=0;jumpSize=8;strokeWidth=1;endSize=10;exitX=0.581;exitY=-0.018;exitDx=0;exitDy=0;exitPerimeter=0;" parent="WIyWlLk6GJQsqaUBKTNV-1" edge="1">
          <mxGeometry relative="1" as="geometry">
            <Array as="points">
              <mxPoint x="173" y="704" />
              <mxPoint x="272" y="704" />
            </Array>
            <mxPoint x="172.96000000000004" y="750" as="sourcePoint" />
            <mxPoint x="272" y="641.98" as="targetPoint" />
          </mxGeometry>
        </mxCell>
        <mxCell id="wuzOycE2TQL7Sc82JYtj-3" value="" style="endArrow=classic;html=1;rounded=0;entryX=0.448;entryY=0.009;entryDx=0;entryDy=0;entryPerimeter=0;exitX=0.005;exitY=0.409;exitDx=0;exitDy=0;exitPerimeter=0;" parent="WIyWlLk6GJQsqaUBKTNV-1" source="98DgAm7RsC2fbT5MqjIy-13" edge="1">
          <mxGeometry width="50" height="50" relative="1" as="geometry">
            <mxPoint x="532.32" y="594" as="sourcePoint" />
            <mxPoint x="256" y="451.7099999999999" as="targetPoint" />
            <Array as="points">
              <mxPoint x="256" y="320" />
            </Array>
          </mxGeometry>
        </mxCell>
        <mxCell id="wuzOycE2TQL7Sc82JYtj-4" value="" style="endArrow=classic;html=1;rounded=0;entryX=-0.005;entryY=0.402;entryDx=0;entryDy=0;exitX=1;exitY=0.5;exitDx=0;exitDy=0;entryPerimeter=0;" parent="WIyWlLk6GJQsqaUBKTNV-1" source="98DgAm7RsC2fbT5MqjIy-12" target="98DgAm7RsC2fbT5MqjIy-7" edge="1">
          <mxGeometry width="50" height="50" relative="1" as="geometry">
            <mxPoint x="720" y="322" as="sourcePoint" />
            <mxPoint x="770" y="272" as="targetPoint" />
          </mxGeometry>
        </mxCell>
        <mxCell id="wuzOycE2TQL7Sc82JYtj-5" value="" style="endArrow=classic;html=1;rounded=0;entryX=0.006;entryY=0.133;entryDx=0;entryDy=0;entryPerimeter=0;exitX=0.318;exitY=1.067;exitDx=0;exitDy=0;exitPerimeter=0;" parent="WIyWlLk6GJQsqaUBKTNV-1" source="98DgAm7RsC2fbT5MqjIy-15" target="JOzwWD3uNPVDuFDDC3zD-20" edge="1">
          <mxGeometry width="50" height="50" relative="1" as="geometry">
            <mxPoint x="512" y="544" as="sourcePoint" />
            <mxPoint x="722" y="496" as="targetPoint" />
            <Array as="points">
              <mxPoint x="512" y="544" />
            </Array>
          </mxGeometry>
        </mxCell>
        <mxCell id="wuzOycE2TQL7Sc82JYtj-6" value="" style="verticalLabelPosition=bottom;verticalAlign=top;html=1;shape=mxgraph.basic.smiley" parent="WIyWlLk6GJQsqaUBKTNV-1" vertex="1">
          <mxGeometry x="1224" y="224" width="100" height="100" as="geometry" />
        </mxCell>
        <mxCell id="UEGiH2OSKMGne1ha3cfj-0" value="1, *" style="text;html=1;align=center;verticalAlign=middle;resizable=0;points=[];autosize=1;strokeColor=none;fillColor=none;" parent="WIyWlLk6GJQsqaUBKTNV-1" vertex="1">
          <mxGeometry x="954" y="496" width="48" height="32" as="geometry" />
        </mxCell>
        <mxCell id="UEGiH2OSKMGne1ha3cfj-1" value="1, *&amp;nbsp;" style="text;html=1;align=center;verticalAlign=middle;resizable=0;points=[];autosize=1;strokeColor=none;fillColor=none;" parent="WIyWlLk6GJQsqaUBKTNV-1" vertex="1">
          <mxGeometry x="524" y="450" width="48" height="32" as="geometry" />
        </mxCell>
        <mxCell id="UEGiH2OSKMGne1ha3cfj-2" value="1" style="text;html=1;align=center;verticalAlign=middle;resizable=0;points=[];autosize=1;strokeColor=none;fillColor=none;" parent="WIyWlLk6GJQsqaUBKTNV-1" vertex="1">
          <mxGeometry x="376" y="272" width="32" height="32" as="geometry" />
        </mxCell>
        <mxCell id="UEGiH2OSKMGne1ha3cfj-3" value="1, *" style="text;html=1;align=center;verticalAlign=middle;resizable=0;points=[];autosize=1;strokeColor=none;fillColor=none;" parent="WIyWlLk6GJQsqaUBKTNV-1" vertex="1">
          <mxGeometry x="254" y="408" width="48" height="32" as="geometry" />
        </mxCell>
        <mxCell id="UEGiH2OSKMGne1ha3cfj-4" value="1, *" style="text;html=1;align=center;verticalAlign=middle;resizable=0;points=[];autosize=1;strokeColor=none;fillColor=none;" parent="WIyWlLk6GJQsqaUBKTNV-1" vertex="1">
          <mxGeometry x="136" y="408" width="48" height="32" as="geometry" />
        </mxCell>
        <mxCell id="UEGiH2OSKMGne1ha3cfj-5" value="1" style="text;html=1;align=center;verticalAlign=middle;resizable=0;points=[];autosize=1;strokeColor=none;fillColor=none;" parent="WIyWlLk6GJQsqaUBKTNV-1" vertex="1">
          <mxGeometry x="944" y="141" width="32" height="32" as="geometry" />
        </mxCell>
        <mxCell id="UEGiH2OSKMGne1ha3cfj-6" value="1" style="text;html=1;align=center;verticalAlign=middle;resizable=0;points=[];autosize=1;strokeColor=none;fillColor=none;" parent="WIyWlLk6GJQsqaUBKTNV-1" vertex="1">
          <mxGeometry x="1124" y="480" width="32" height="32" as="geometry" />
        </mxCell>
        <mxCell id="UEGiH2OSKMGne1ha3cfj-7" value="1, *" style="text;html=1;align=center;verticalAlign=middle;resizable=0;points=[];autosize=1;strokeColor=none;fillColor=none;" parent="WIyWlLk6GJQsqaUBKTNV-1" vertex="1">
          <mxGeometry x="1006" y="173" width="48" height="32" as="geometry" />
        </mxCell>
        <mxCell id="rRV1M-npz2bHq_uVHApi-1" value="1, *" style="text;html=1;align=center;verticalAlign=middle;resizable=0;points=[];autosize=1;strokeColor=none;fillColor=none;" vertex="1" parent="WIyWlLk6GJQsqaUBKTNV-1">
          <mxGeometry x="780" y="253" width="48" height="32" as="geometry" />
        </mxCell>
        <mxCell id="rRV1M-npz2bHq_uVHApi-2" value="1" style="text;html=1;align=center;verticalAlign=middle;resizable=0;points=[];autosize=1;strokeColor=none;fillColor=none;" vertex="1" parent="WIyWlLk6GJQsqaUBKTNV-1">
          <mxGeometry x="692" y="253" width="32" height="32" as="geometry" />
        </mxCell>
      </root>
    </mxGraphModel>
  </diagram>
</mxfile>
